<svg xmlns="http://www.w3.org/2000/svg" viewBox="0 0 553.91 525.7"><defs><style>.cls-1{isolation:isolate;}.cls-2{fill:#464646;}.cls-2,.cls-3{fill-rule:evenodd;}.cls-3{fill:#4b4b4b;}</style></defs><title>ISSS_meta</title><g id="Layer_2" data-name="Layer 2"><g id="Color_Fill_1" data-name="Color Fill 1" class="cls-1"><g id="Color_Fill_1-2" data-name="Color Fill 1"><path class="cls-2" d="M439.49,125.19c59.32,120,60.78,268.87-89,315-83.86,25.83-227.78-7.61-262-143-27.88-110.31,52.29-284.62,290-230,43.21,9.93,81,30,81,30s-17.43-35.88-44-55c-63.73-51.11-188.7-46.45-232-34-144.06,41.43-188.8,196-183,266,9.12,110.11,93.87,200.91,173,231,82,31.18,161.34,20.49,194,9,88.56-31.14,134.58-72.41,171-155C581.34,262,530.58,117.48,439.49,125.19Z"/></g></g><g id="Color_Fill_1_copy" data-name="Color Fill 1 copy" class="cls-1"><g id="Color_Fill_1_copy-2" data-name="Color Fill 1 copy"><path class="cls-3" d="M461.49,147.19c21.92,33.84,134.79,305.89-148,332-273.43,25.24-344.67-327.27-113-416,120.44-46.13,239,25,239,25s-100.59-107.1-275-42c-91.56,34.18-148.7,146.14-137,242,14.44,118.27,115.45,232.25,283,226C604.49,473.09,545.91,173.52,461.49,147.19Z"/></g></g></g></svg>