<svg xmlns="http://www.w3.org/2000/svg" viewBox="0 0 772.17 85.75"><defs><style>.cls-1,.cls-2{font-size:39px;font-family:Copperplate-Bold, Copperplate;font-weight:700;}.cls-1{fill:#f9f7f7;}.cls-1,.cls-3{stroke:#fff;stroke-miterlimit:10;}.cls-4{fill:#333;}</style></defs><title>ISSS_head</title><g id="Layer_2" data-name="Layer 2"><g id="Layer_1-2" data-name="Layer 1"><text class="cls-1" transform="translate(95.14 34.82) scale(1.14 1)">International Society <tspan x="0" y="30">for the Study of Self-Injury</tspan></text><text class="cls-2" transform="translate(93.2 33.52) scale(1.14 1)">International Society <tspan x="0" y="30">for the Study of Self-Injury</tspan></text><path class="cls-3" d="M75.38,22.7c4.31-3.09-10.5-19.39-22.9-21.55C45.13-.13-5.5-4.41,1.09,48.33c6.48,51.82,59.67,37.82,70.87,25,6.36-7.3,8.06-15.24,9-22.6,1.87-15.41-14.06-30.79-16.48-28C60,27.88,69.1,37,70.21,45.74,72.77,66.05,50.23,70.5,33,67.28,5.75,62.21,5,10,44.22,10.79,59.84,11.1,69.1,24.12,75.38,22.7Z"/><path class="cls-4" d="M72,19.16C72.72,17.14,65.12,6,53.69,4,46.91,2.84-1.91-.75,4.17,47.9c6,47.79,55,34.88,65.37,23C75.41,64.18,77,56.85,77.8,50.07c1.72-14.21-8-24.29-11.68-23.57.42,4.27,4,6.49,5.66,10,1.29,2.66,4.1,14.09,1.07,20-8.14,16-26.37,19.63-44.35,16C.8,67-1.81,3.26,49.55,6.56,63.92,7.49,69.33,20.47,72,19.16Z"/></g></g></svg>